
<svg  xmlns="http://www.w3.org/2000/svg"
 width="140pt" height="30pt" viewBox="0 0 1000.000000 197.000000"
 preserveAspectRatio="xMidYMid meet">
<g transform="translate(0.000000,197.000000) scale(0.100000,-0.100000)"
fill="#ffffff" stroke="none">
<path d="M5110 1733 l0 -223 -160 0 -160 0 0 -185 0 -185 160 0 160 0 0 -515
0 -515 225 0 225 0 0 670 0 670 130 0 130 0 0 -130 0 -130 30 0 30 0 0 160 0
160 -160 0 -160 0 0 223 0 222 -225 0 -225 0 0 -222z m398 -700 l2 -863 -175
0 -175 0 0 515 0 515 -160 0 -160 0 0 125 0 125 160 0 160 0 0 218 c0 120 3
222 7 226 4 3 81 5 172 4 l166 -3 3 -862z"/>
<path d="M580 1535 c-87 -20 -212 -81 -285 -140 -89 -72 -151 -149 -201 -250
-194 -396 -6 -883 400 -1032 125 -46 313 -57 443 -27 262 61 478 273 549 539
8 28 14 51 14 53 0 1 -103 2 -229 2 l-229 0 -33 -51 c-20 -31 -54 -65 -87 -88
-54 -35 -58 -36 -151 -36 -80 0 -103 4 -137 22 -60 32 -118 103 -139 169 -25
80 -17 201 17 269 48 92 139 154 226 155 l42 0 0 185 0 185 42 0 c98 0 256
-60 360 -136 100 -74 186 -195 229 -323 21 -61 31 -69 59 -51 12 8 11 18 -8
77 -33 103 -88 189 -177 278 -87 86 -187 147 -306 185 -86 28 -305 36 -399 15z
m140 -108 c0 -35 3 -105 6 -155 l7 -91 -29 -6 c-178 -38 -284 -175 -284 -365
0 -201 130 -353 315 -368 123 -9 244 43 307 133 l32 45 173 0 c116 0 173 -4
173 -11 0 -6 -10 -34 -22 -62 -84 -198 -257 -348 -468 -404 -86 -23 -252 -23
-340 0 -119 31 -226 92 -310 176 -221 221 -270 545 -123 823 61 117 170 222
294 284 66 34 170 63 227 63 l42 1 0 -63z"/>
<path d="M2278 1540 c-31 -5 -92 -23 -135 -39 -230 -89 -384 -261 -449 -501
-27 -99 -25 -291 5 -394 35 -126 94 -230 181 -317 138 -140 299 -208 506 -217
183 -7 324 30 465 123 281 187 392 558 268 890 -78 208 -247 363 -474 435 -80
25 -270 35 -367 20z m326 -70 c229 -60 395 -214 474 -438 24 -71 27 -89 26
-227 0 -143 -2 -154 -32 -233 -36 -97 -104 -203 -167 -260 -103 -96 -256 -166
-385 -178 l-70 -7 0 185 0 185 -55 6 c-104 11 -193 76 -239 176 -16 35 -21 66
-21 131 0 73 4 93 28 142 105 214 388 222 507 14 17 -28 33 -72 36 -98 6 -45
8 -48 37 -48 30 0 30 0 23 46 -10 79 -53 159 -116 217 -175 162 -446 102 -547
-121 -22 -48 -27 -72 -27 -152 0 -86 2 -101 30 -160 50 -104 134 -174 242
-200 l42 -11 0 -156 0 -156 -70 7 c-214 20 -420 163 -515 360 -190 390 -6 839
395 965 86 27 97 28 221 30 77 1 126 -4 183 -19z"/>
<path d="M3970 1536 c-61 -16 -135 -54 -162 -83 -30 -32 -38 -29 -38 17 l0 40
-215 0 -215 0 0 -700 0 -700 230 0 229 0 -5 188 c-2 103 -9 375 -14 605 l-11
418 33 41 c73 92 164 131 307 130 199 -1 357 -90 422 -237 42 -96 48 -173 49
-642 l0 -443 -169 0 -170 0 -3 412 c-3 406 -3 414 -26 463 -12 27 -30 58 -40
68 -23 26 -79 53 -124 60 -37 6 -38 5 -38 -24 0 -21 5 -29 18 -29 43 -1 101
-39 124 -82 23 -43 23 -45 26 -485 l3 -443 230 0 230 0 -3 508 -4 507 -25 82
c-14 46 -42 107 -63 138 -62 95 -186 170 -320 196 -67 12 -202 10 -256 -5z
m-256 -248 c3 -90 8 -300 11 -468 3 -168 8 -383 12 -477 l6 -173 -172 0 -171
0 0 640 0 640 154 0 154 0 6 -162z"/>
<path d="M6570 1544 c-120 -21 -242 -70 -335 -134 -74 -51 -169 -163 -214
-252 -56 -112 -72 -181 -78 -324 -6 -146 14 -243 79 -374 33 -69 59 -102 132
-176 74 -74 107 -98 176 -132 129 -64 192 -77 355 -77 158 0 223 13 340 69
282 134 444 436 405 753 -39 312 -228 536 -529 625 -64 19 -272 33 -331 22z
m283 -70 c200 -45 379 -189 464 -375 63 -137 77 -334 34 -486 -43 -154 -156
-304 -284 -382 -105 -62 -226 -101 -316 -101 l-36 0 5 156 5 157 45 11 c73 19
116 45 165 97 169 181 118 482 -99 589 -55 27 -75 32 -142 32 -92 0 -145 -16
-214 -67 -76 -56 -140 -173 -140 -257 0 -26 3 -29 27 -26 24 3 29 9 35 47 25
148 167 262 309 249 73 -7 156 -54 201 -113 146 -194 34 -478 -198 -502 l-54
-6 0 -185 0 -185 -67 7 c-155 14 -283 76 -399 191 -134 133 -195 283 -195 481
-1 215 89 412 243 535 69 54 196 116 278 133 89 20 246 19 333 0z"/>
<path d="M9803 1535 c-64 -17 -120 -45 -161 -80 -16 -14 -31 -25 -33 -25 -2 0
-4 17 -4 37 l0 38 -217 3 -218 2 0 -700 0 -700 232 0 231 0 -6 208 c-4 114
-10 389 -13 612 l-6 405 36 42 c49 56 145 103 225 110 l61 6 0 -182 0 -182 28
3 27 3 3 208 2 207 -67 -1 c-38 0 -92 -7 -120 -14z m-249 -492 c3 -225 9 -513
12 -640 l7 -233 -172 0 -171 0 0 640 0 640 159 0 158 0 7 -407z"/>
<path d="M7600 1036 c0 -536 4 -579 66 -697 68 -128 180 -217 324 -254 48 -13
95 -16 180 -13 100 3 123 7 177 32 34 15 72 39 84 52 31 33 39 30 39 -11 l0
-35 215 0 215 0 0 700 0 700 -227 -2 -228 -3 4 -325 c2 -179 5 -333 7 -343 1
-9 4 -136 5 -280 2 -287 0 -295 -58 -348 -107 -100 -329 -115 -493 -33 -121
61 -215 186 -239 318 -7 38 -11 226 -11 508 l0 448 170 0 170 0 0 -392 c0
-427 5 -479 53 -541 30 -39 75 -63 135 -73 41 -6 42 -6 42 23 0 28 -4 31 -41
37 -52 8 -103 56 -118 111 -7 26 -11 188 -11 468 l0 427 -230 0 -230 0 0 -474z
m1240 -226 l0 -640 -158 0 -159 0 -7 502 c-3 277 -9 565 -13 641 l-6 137 172
0 171 0 0 -640z"/>
</g>
</svg>
