<?xml version="1.0" standalone="no"?>
<!DOCTYPE svg PUBLIC "-//W3C//DTD SVG 20010904//EN"
 "http://www.w3.org/TR/2001/REC-SVG-20010904/DTD/svg10.dtd">
<svg version="1.0" xmlns="http://www.w3.org/2000/svg"
 width="714.000000pt" height="714.000000pt" viewBox="0 0 714.000000 714.000000"
 preserveAspectRatio="xMidYMid meet">
<metadata>
Created by potrace 1.14, written by Peter Selinger 2001-2017
</metadata>
<g transform="translate(0.000000,714.000000) scale(0.100000,-0.100000)"
fill="#000000" stroke="none">
<path d="M3357 7074 c-1 -1 -42 -5 -92 -8 -49 -3 -101 -8 -115 -10 -23 -4 -80
-12 -160 -22 -19 -3 -42 -7 -50 -9 -8 -3 -33 -7 -55 -10 -22 -4 -56 -10 -75
-15 -19 -5 -47 -11 -61 -14 -74 -12 -370 -99 -434 -126 -11 -4 -40 -16 -65
-25 -114 -42 -325 -144 -453 -219 -87 -51 -334 -219 -386 -261 -137 -113 -184
-156 -301 -274 -75 -75 -151 -156 -170 -180 -19 -24 -40 -48 -46 -55 -51 -54
-206 -277 -301 -431 -50 -82 -130 -241 -209 -420 -24 -54 -91 -249 -113 -325
-34 -127 -68 -263 -77 -310 -4 -25 -8 -47 -9 -50 -1 -3 -5 -25 -9 -50 -5 -25
-10 -54 -12 -65 -4 -20 -10 -66 -19 -135 -34 -273 -25 -696 20 -955 29 -167
37 -204 71 -340 181 -717 581 -1339 1169 -1814 276 -223 657 -432 1000 -548
184 -62 502 -139 654 -158 30 -4 62 -8 71 -10 17 -3 141 -15 215 -21 62 -5
415 -5 460 0 22 2 72 7 110 11 39 3 81 8 95 10 14 2 45 7 70 10 39 6 155 27
215 40 11 3 29 7 40 9 354 73 733 227 1060 429 72 44 261 175 292 202 14 11
26 21 67 53 111 85 326 294 431 417 302 353 510 713 652 1130 32 93 99 335
109 394 3 14 11 50 19 79 19 76 9 119 -38 169 -21 23 -45 35 -81 43 -35 7
-384 10 -1081 8 -1009 -3 -1031 -3 -1063 -23 -34 -21 -61 -59 -127 -180 -174
-317 -443 -517 -761 -565 -102 -16 -276 -19 -384 -8 -161 17 -369 97 -501 195
-74 55 -180 164 -226 232 -21 31 -41 58 -44 61 -14 12 -100 201 -122 270 -43
134 -64 290 -61 465 3 223 43 399 133 585 67 138 110 199 216 306 103 103 147
136 260 189 44 21 87 41 95 45 19 9 114 36 160 45 19 3 105 9 190 11 178 6
217 14 254 51 43 43 52 94 50 286 -11 962 -16 1282 -21 1290 -5 9 96 3 155 -7
9 -2 37 -7 62 -11 25 -3 56 -8 70 -11 328 -51 756 -224 1080 -435 185 -121
470 -376 601 -539 24 -30 46 -57 49 -60 19 -17 138 -191 189 -277 145 -245
262 -526 322 -773 26 -107 43 -135 97 -161 51 -25 84 -26 181 -4 40 9 78 18
85 19 156 30 199 63 209 161 9 84 -106 460 -215 705 -111 249 -323 587 -480
765 -9 11 -36 43 -60 70 -82 96 -284 291 -372 360 -21 17 -44 35 -50 40 -20
19 -200 150 -246 179 -25 16 -57 37 -72 48 -15 10 -30 18 -34 18 -4 0 -15 6
-23 14 -29 25 -257 144 -386 201 -114 51 -390 148 -450 159 -11 2 -45 11 -75
20 -30 8 -66 17 -80 20 -14 3 -68 14 -120 25 -53 11 -113 23 -135 26 -22 4
-47 8 -55 10 -8 2 -42 7 -75 10 -33 4 -70 8 -83 10 -77 12 -535 28 -545 19z
m-120 -701 c0 -59 3 -301 7 -538 l5 -430 -82 -19 c-336 -78 -643 -265 -847
-515 -19 -23 -43 -52 -52 -63 -10 -12 -18 -24 -18 -28 0 -3 -8 -15 -18 -26
-23 -25 -101 -152 -139 -229 -67 -132 -150 -400 -169 -545 -3 -25 -8 -48 -10
-51 -6 -11 -18 -193 -18 -289 0 -86 9 -238 18 -286 2 -10 7 -37 10 -59 56
-316 166 -573 348 -814 64 -85 239 -256 314 -306 33 -22 61 -43 64 -46 12 -15
190 -111 259 -140 68 -29 207 -74 256 -83 11 -3 52 -11 90 -19 242 -52 540
-41 798 28 9 3 27 7 39 10 208 45 493 212 681 399 81 80 124 132 231 279 l27
37 615 0 c345 0 614 -4 614 -9 0 -35 -176 -391 -241 -489 -16 -24 -29 -45 -29
-47 0 -3 -28 -44 -62 -91 -179 -253 -421 -497 -673 -681 -266 -194 -646 -370
-974 -453 -138 -35 -143 -36 -291 -54 -191 -25 -225 -27 -414 -26 -207 1 -348
9 -433 24 -21 4 -82 14 -138 22 -70 10 -297 71 -385 104 -47 17 -89 32 -95 34
-15 4 -61 23 -150 62 -193 85 -449 239 -600 362 -121 97 -288 257 -380 362
-309 353 -559 867 -639 1319 -45 247 -54 361 -50 621 4 250 9 302 59 585 19
104 110 387 162 505 56 125 120 251 175 344 56 95 174 270 200 298 7 7 31 36
53 63 57 73 298 311 386 382 92 73 245 180 314 218 28 15 55 31 60 35 25 20
260 132 365 173 96 38 281 99 340 112 117 26 317 59 381 63 l35 3 1 -108z"/>
</g>
</svg>
